<?xml version="1.0" standalone="no"?>
<!DOCTYPE svg PUBLIC "-//W3C//DTD SVG 20010904//EN"
 "http://www.w3.org/TR/2001/REC-SVG-20010904/DTD/svg10.dtd">
<svg version="1.0" xmlns="http://www.w3.org/2000/svg"
 width="600.000000pt" height="600.000000pt" viewBox="0 0 600.000000 600.000000"
 preserveAspectRatio="xMidYMid meet">
<metadata>
Created by potrace 1.14, written by Peter Selinger 2001-2017
</metadata>
<g transform="translate(0.000000,600.000000) scale(0.100000,-0.100000)"
fill="#000000" stroke="none">
<path d="M0 3000 l0 -3000 3000 0 3000 0 0 3000 0 3000 -3000 0 -3000 0 0
-3000z m3345 2296 c11 -7 286 -166 610 -353 946 -546 965 -557 965 -563 -1
-11 -626 -375 -645 -375 -18 1 -137 68 -770 435 l-200 115 -3 378 c-2 400 -3
395 43 363z m-545 -380 l0 -384 -212 -123 c-117 -67 -336 -193 -486 -280
l-274 -159 -324 196 c-179 108 -322 200 -317 204 7 7 220 130 1368 792 132 76
241 138 242 138 2 0 3 -173 3 -384z m-1532 -1191 l312 -189 0 -576 0 -575
-327 -195 c-180 -107 -331 -196 -337 -198 -8 -2 -10 285 -8 974 l2 976 23 -14
c12 -8 163 -99 335 -203z m857 -1933 c138 -79 345 -199 462 -265 l212 -122 3
-388 c3 -341 1 -388 -12 -384 -8 3 -370 210 -805 461 -434 250 -794 458 -800
460 -13 6 -39 -11 335 214 265 159 318 187 335 179 11 -6 133 -75 270 -155z
m2458 -67 c174 -104 313 -193 309 -197 -6 -6 -226 -133 -867 -503 -132 -76
-347 -201 -479 -277 -131 -76 -240 -138 -242 -138 -2 0 -4 173 -4 384 l0 384
468 270 c257 149 474 270 483 269 9 -1 159 -87 332 -192z"/>
</g>
</svg>
